<?xml version="1.0" standalone="no"?>
<!DOCTYPE svg PUBLIC "-//W3C//DTD SVG 20010904//EN"
 "http://www.w3.org/TR/2001/REC-SVG-20010904/DTD/svg10.dtd">
<svg version="1.0" xmlns="http://www.w3.org/2000/svg"
 width="412.000000pt" height="412.000000pt" viewBox="0 0 412.000000 412.000000"
 preserveAspectRatio="xMidYMid meet">

<g transform="translate(0.000000,412.000000) scale(0.100000,-0.100000)"
fill="#000000" stroke="none">
<path d="M165 4051 c-48 -22 -79 -54 -100 -103 -13 -33 -15 -240 -15 -1888 0
-1648 2 -1855 15 -1888 21 -49 52 -81 100 -103 38 -18 113 -19 1895 -19 1782
0 1857 1 1895 19 48 22 79 54 100 103 13 33 15 240 15 1890 0 1780 -1 1855
-19 1893 -22 48 -54 79 -103 100 -33 13 -240 15 -1890 15 -1780 0 -1855 -1
-1893 -19z m3791 -47 c15 -11 37 -33 48 -48 l21 -27 0 -1869 0 -1869 -21 -27
c-11 -15 -33 -37 -48 -48 l-27 -21 -1869 0 -1869 0 -27 21 c-15 11 -37 33 -48
48 l-21 27 -3 1842 c-1 1013 0 1856 3 1874 7 40 49 91 90 109 25 11 358 13
1887 11 l1857 -2 27 -21z"/>
<path d="M181 4002 c-19 -9 -44 -30 -55 -45 l-21 -28 0 -1869 0 -1869 21 -28
c11 -15 36 -36 55 -45 32 -17 142 -18 1879 -18 1737 0 1847 1 1879 18 19 9 44
30 55 45 l21 28 0 1869 0 1869 -21 28 c-11 15 -36 36 -55 45 -32 17 -142 18
-1879 18 -1737 0 -1847 -1 -1879 -18z m2069 -452 c0 -10 7 -20 15 -24 25 -9
17 -34 -12 -38 -20 -2 -29 -10 -34 -31 -7 -25 -5 -28 14 -25 16 2 23 -3 25
-19 3 -17 -3 -23 -28 -28 -52 -11 -76 27 -49 78 9 16 9 22 0 25 -16 5 -14 42
3 42 8 0 19 14 25 31 9 27 13 30 26 19 8 -7 15 -20 15 -30z m-245 -15 c11 -1
24 -3 29 -4 4 0 5 -21 2 -45 -6 -38 -5 -44 11 -42 28 2 28 -32 -1 -45 -32 -15
-56 -5 -56 22 0 21 -1 21 -21 -5 -52 -66 -105 4 -64 84 18 34 44 52 65 44 8
-4 24 -7 35 -9z m-217 -57 c9 -19 9 -33 1 -55 -13 -34 -48 -73 -66 -73 -9 0
-13 -13 -13 -40 0 -40 -11 -49 -39 -31 -11 7 -12 26 -7 86 6 64 4 79 -9 89
-27 19 -8 49 26 42 17 -3 29 -1 29 5 0 6 15 9 32 7 24 -2 36 -10 46 -30z m703
-15 c25 -47 -39 -123 -94 -110 -54 14 -51 81 5 128 37 31 66 25 89 -18z m-973
-70 c3 -41 15 -56 25 -30 3 9 9 7 23 -5 17 -17 17 -18 -1 -38 -22 -25 -60 -26
-74 -2 -10 15 -10 15 -11 -3 0 -43 -39 -58 -72 -28 -22 20 -24 90 -3 120 15
21 48 32 90 29 16 -1 21 -9 23 -43z m1193 15 c8 -16 7 -24 -4 -35 -17 -17 -37
-10 -37 12 0 9 -6 12 -15 9 -21 -8 -19 -24 6 -50 30 -32 19 -54 -29 -54 -43 0
-79 28 -69 55 8 19 26 19 33 0 4 -8 13 -15 21 -15 13 0 13 3 -1 25 -24 36 -20
54 15 69 38 16 66 10 80 -16z m-1447 -109 c0 -19 -4 -47 -8 -64 l-7 -30 24 29
c24 27 57 32 57 7 0 -18 -36 -51 -59 -54 -13 -2 -29 -11 -36 -20 -13 -19 -40
-22 -50 -7 -3 5 1 20 9 32 17 28 31 88 19 88 -4 0 -13 -10 -18 -22 -13 -30
-49 -30 -53 -1 -3 22 34 57 50 47 5 -4 19 4 30 15 27 29 43 22 42 -20z m1854
-55 c2 -15 -11 -33 -47 -64 -53 -43 -62 -60 -35 -60 25 0 12 -35 -14 -38 -13
-2 -30 2 -38 8 -17 15 -19 50 -2 50 6 0 9 2 6 5 -3 3 -17 1 -31 -4 -35 -14
-60 6 -55 44 6 56 112 100 138 58 10 -17 12 -16 28 4 21 27 46 26 50 -3z
m-2184 -194 c-1 -19 -5 -45 -9 -57 -4 -14 -3 -23 3 -23 5 0 15 14 21 31 13 37
36 34 36 -6 0 -37 -43 -70 -79 -61 -74 19 -71 163 3 154 23 -3 26 -8 25 -38z
m2314 24 c29 -20 30 -70 3 -79 -11 -3 -36 1 -55 9 -22 9 -38 11 -42 5 -3 -5 8
-14 25 -20 20 -7 31 -18 31 -30 0 -22 -21 -25 -53 -8 -30 16 -37 28 -37 67 0
29 5 35 43 52 51 24 57 24 85 4z m-2496 -181 c32 -44 43 -53 46 -40 3 12 11
17 25 15 17 -2 21 -9 19 -28 -4 -38 -28 -57 -51 -43 -18 11 -19 10 -11 -17 9
-31 -8 -60 -34 -60 -24 0 -64 40 -76 76 -11 32 -10 39 9 65 21 29 21 29 1 41
-29 18 -26 48 5 48 18 0 35 -15 67 -57z m2636 20 c2 -11 12 -23 22 -26 11 -3
22 -17 26 -33 16 -61 -93 -101 -145 -53 -23 21 -24 21 -53 4 -22 -13 -33 -14
-41 -6 -19 19 5 43 73 72 41 17 67 35 72 49 10 27 42 23 46 -7z m165 -210 c13
-8 7 -71 -8 -86 -35 -35 -113 -29 -134 11 -26 49 25 96 94 86 22 -4 43 -8 48
-11z m-1283 -40 c23 -17 23 -17 -45 -31 -131 -26 -235 -81 -362 -191 -82 -71
-127 -90 -154 -65 -15 13 -24 14 -52 5 -46 -15 -118 -62 -200 -129 -99 -80
-120 -132 -71 -171 l26 -20 -22 -31 c-22 -31 -67 -60 -94 -60 -8 0 -28 8 -46
18 -27 15 -30 21 -25 47 17 90 93 173 260 282 38 26 108 76 155 111 47 36 110
76 140 89 30 14 111 51 180 83 69 32 141 63 160 68 56 16 123 14 150 -5z m70
-49 c0 -8 -35 -52 -78 -97 -43 -45 -84 -91 -90 -102 -13 -26 -102 -48 -226
-56 -50 -4 -67 -19 -47 -43 14 -17 8 -22 -42 -31 -22 -4 -56 -2 -83 5 -39 11
-45 16 -42 37 2 18 12 28 38 37 19 7 78 47 130 90 52 42 127 93 165 112 109
54 275 83 275 48z m1310 -102 c0 -4 -7 -18 -16 -30 -14 -21 -14 -22 10 -22 19
0 26 -5 26 -20 0 -32 -27 -35 -60 -7 -26 23 -33 24 -65 14 -42 -13 -52 -5 -37
28 9 20 19 25 46 25 25 0 38 6 46 20 9 16 15 18 30 10 11 -6 20 -14 20 -18z
m-3101 -8 c30 -25 31 -25 31 -5 0 14 6 21 20 21 16 0 20 -7 20 -35 0 -39 -28
-63 -48 -43 -18 18 -14 1 5 -29 16 -25 16 -26 -6 -44 -33 -27 -48 -24 -87 15
-39 39 -46 88 -16 105 9 6 13 11 8 11 -14 0 15 30 29 30 8 0 27 -12 44 -26z
m1970 -138 c-20 -21 -42 -60 -54 -97 -26 -78 -39 -87 -97 -69 -23 8 -44 15
-46 16 -2 1 5 18 14 37 14 29 24 37 55 42 21 4 43 4 49 0 5 -3 14 4 19 17 13
35 60 88 78 88 11 0 5 -11 -18 -34z m78 14 c37 -33 35 -52 -10 -140 -48 -94
-70 -108 -141 -89 -40 11 -40 11 -18 27 12 10 30 41 40 71 15 46 86 149 103
151 3 0 15 -9 26 -20z m-463 -15 c-7 -17 -14 -18 -41 -8 -16 6 -15 8 7 14 38
11 40 10 34 -6z m-429 -56 c0 -46 -8 -72 -43 -142 -46 -93 -79 -127 -123 -127
-44 0 -138 39 -155 65 -14 21 -14 27 0 52 34 68 250 218 301 211 17 -3 20 -10
20 -59z m584 -1 c15 -41 21 -107 11 -113 -5 -3 -10 -11 -10 -16 0 -5 11 -2 25
7 24 16 27 15 75 -16 94 -60 162 -49 191 32 9 26 27 63 39 83 21 33 24 35 38
21 15 -14 14 -20 -1 -63 -36 -102 -17 -126 79 -98 31 9 59 13 63 9 3 -4 -1 -9
-9 -12 -8 -3 -33 -23 -54 -44 l-40 -40 -45 21 c-70 31 -98 33 -216 16 -114
-16 -165 -13 -165 10 0 16 22 25 48 18 22 -5 40 14 26 27 -5 5 -45 12 -88 15
-44 3 -83 8 -88 11 -13 8 -9 108 5 126 15 20 33 26 75 27 25 1 34 -4 41 -21z
m1418 6 c4 -11 13 -14 30 -9 13 3 28 3 33 0 15 -9 -2 -45 -22 -45 -15 0 -18
-5 -13 -20 5 -15 2 -20 -14 -20 -11 0 -22 9 -26 21 -10 30 -61 23 -57 -9 4
-30 -24 -40 -43 -16 -16 21 -20 60 -6 68 4 3 23 7 40 8 19 1 37 10 42 20 12
22 28 23 36 2z m-1656 -6 c22 -6 39 -15 39 -20 0 -12 -9 -10 -65 12 -54 21
-36 27 26 8z m-1628 -54 c66 -35 67 -35 65 -12 -2 17 2 23 17 23 14 0 21 -8
23 -28 4 -36 -15 -59 -41 -51 -19 6 -19 5 2 -17 28 -30 23 -61 -11 -73 -53
-19 -145 71 -109 107 18 18 13 25 -19 32 -31 7 -38 23 -18 43 16 16 15 17 91
-24z m1400 21 l48 0 -25 -20 c-24 -19 -96 -156 -96 -182 0 -7 5 -13 10 -13 6
0 10 -4 10 -8 0 -11 -131 -32 -193 -31 -28 1 -40 4 -25 6 15 2 40 17 56 32 33
33 85 129 103 188 11 39 14 42 38 35 14 -4 48 -7 74 -7z m887 -8 c8 -7 30 -30
49 -52 l34 -40 -54 -15 c-90 -27 -106 -10 -73 77 18 46 21 49 44 30z m-673
-41 c9 -9 -15 -14 -100 -20 -74 -6 -77 -5 -67 13 5 11 15 21 21 23 15 5 138
-8 146 -16z m-187 -28 c0 -4 -9 -8 -21 -8 -11 0 -18 4 -15 8 3 5 12 9 21 9 8
0 15 -4 15 -9z m150 -37 c0 -11 -149 -11 -156 1 -3 4 31 8 75 8 45 0 81 -4 81
-9z m-147 -40 c4 -4 -11 -7 -33 -8 -28 -1 -40 3 -40 13 0 10 9 12 33 7 17 -3
35 -9 40 -12z m1016 2 c38 -22 40 -49 7 -120 -21 -44 -40 -64 -127 -128 -56
-42 -115 -83 -132 -92 -17 -8 -72 -46 -122 -84 -56 -42 -127 -84 -185 -109
-52 -23 -133 -58 -180 -79 -149 -67 -215 -80 -275 -52 l-40 18 30 7 c134 31
169 42 235 77 41 21 115 70 165 109 95 75 127 90 156 71 42 -25 93 -5 227 91
125 90 160 150 112 193 -27 24 -25 36 8 67 55 51 76 56 121 31z m-966 -10 c-7
-2 -19 -2 -25 0 -7 3 -2 5 12 5 14 0 19 -2 13 -5z m357 -3 c0 -5 -6 -10 -14
-10 -8 0 -18 5 -21 10 -3 6 3 10 14 10 12 0 21 -4 21 -10z m1508 -2 c7 -7 8
-17 1 -30 -7 -13 -21 -18 -55 -18 -29 0 -43 -4 -39 -10 4 -6 1 -18 -6 -26 -10
-13 -14 -12 -30 2 -20 18 -26 69 -9 79 5 3 25 2 44 -4 27 -7 38 -6 47 5 14 17
31 18 47 2z m56 -4 c17 -7 22 -39 7 -48 -25 -16 -55 26 -34 47 8 8 8 8 27 1z
m-1639 -41 c-18 -13 -35 -17 -35 -9 0 21 14 33 32 28 20 -5 20 -6 3 -19z m350
8 c-33 -20 -96 -120 -123 -194 -14 -40 -20 -47 -37 -42 -11 3 -41 8 -66 11
l-46 6 24 24 c29 29 29 43 1 37 -20 -4 -21 -3 -5 7 9 6 22 8 27 5 16 -10 72
116 59 132 -8 9 -8 14 2 17 26 9 64 13 129 15 l65 1 -30 -19z m-630 -13 c7 -7
-3 -9 -30 -4 -22 3 -48 6 -57 6 -10 0 -18 5 -18 11 0 13 90 1 105 -13z m65 -7
c0 -14 -6 -17 -27 -13 -25 5 -25 6 -8 18 25 19 35 17 35 -5z m345 -4 c7 -6 -1
-8 -24 -3 -18 3 -42 6 -52 6 -11 0 -19 5 -19 10 0 13 81 2 95 -13z m348 7 c48
-16 87 -54 87 -83 0 -41 -215 -203 -291 -218 -40 -8 -61 15 -52 61 9 51 91
213 119 235 32 25 74 27 137 5z m-1188 -24 c56 -24 128 -26 243 -5 82 14 142
11 142 -7 0 -5 4 -6 10 -3 5 3 18 1 27 -5 15 -9 13 -10 -12 -9 -16 1 -37 -1
-45 -4 -8 -4 -24 -5 -35 -4 -11 1 -21 -5 -23 -15 -3 -14 3 -18 22 -18 33 0 34
-17 2 -31 -20 -10 -31 -8 -62 12 -21 12 -35 18 -31 12 4 -6 -2 -13 -12 -16
-12 -3 -26 -26 -40 -70 -14 -41 -37 -82 -63 -112 -39 -45 -41 -45 -60 -28 -39
35 -40 59 -8 120 17 31 30 64 30 74 0 31 44 52 97 46 28 -3 40 -1 32 4 -25 16
-85 10 -112 -11 -14 -11 -29 -35 -32 -52 -4 -18 -20 -52 -35 -76 -23 -38 -28
-41 -40 -27 -11 13 -10 24 4 66 20 64 20 83 0 100 -13 11 -26 10 -77 -4 -63
-16 -87 -14 -52 5 11 6 34 26 50 45 17 18 31 33 32 33 1 0 22 -9 48 -20z
m-995 -72 c0 -34 -19 -44 -60 -30 -16 6 -30 7 -30 2 0 -12 50 -50 66 -50 21 0
25 -17 8 -34 -14 -14 -18 -14 -46 0 -23 12 -36 13 -54 6 -17 -9 -25 -7 -35 4
-16 19 0 50 25 48 21 -2 20 5 -6 33 -20 22 -21 24 -5 40 16 16 19 16 52 0 44
-21 46 -21 38 -1 -8 20 17 36 34 22 7 -6 13 -24 13 -40z m1773 45 c-7 -2 -21
-2 -30 0 -10 3 -4 5 12 5 17 0 24 -2 18 -5z m87 -9 c0 -5 -4 -9 -10 -8 -5 1
-21 2 -35 3 -39 2 -29 17 10 16 19 -1 35 -5 35 -11z m-860 -53 c0 -23 -33
-111 -41 -111 -10 0 -99 90 -99 100 0 11 101 38 123 32 9 -2 17 -12 17 -21z
m796 18 c4 -6 -24 -9 -75 -8 -45 1 -81 6 -81 10 0 12 148 10 156 -2z m-317
-15 c10 -8 5 -124 -6 -135 -6 -6 -31 -14 -56 -16 -37 -4 -47 -2 -55 13 -19 36
-25 93 -12 123 11 29 13 29 68 24 32 -3 59 -7 61 -9z m1825 -26 c19 -30 -11
-51 -64 -44 -37 4 -41 3 -25 -6 10 -6 37 -17 60 -23 44 -13 57 -48 20 -52 -24
-3 -114 45 -129 70 -17 27 5 51 50 55 21 2 43 8 49 13 12 12 26 7 39 -13z
m-2024 0 c43 -14 47 -22 29 -62 -12 -25 -35 -36 -81 -36 -22 0 -32 -8 -48 -39
-18 -37 -54 -71 -73 -71 -5 0 7 19 27 41 20 24 42 66 52 98 16 57 30 81 45 81
5 0 27 -6 49 -12z m490 -18 c-9 -17 -20 -20 -68 -19 -119 2 -131 25 -17 32 33
2 68 4 78 5 15 2 16 -1 7 -18z m-133 -90 c15 -9 14 -10 -9 -6 -45 10 -78 25
-78 36 0 10 52 -7 87 -30z m253 10 c12 -6 20 -21 20 -35 0 -20 -5 -25 -24 -25
-24 0 -67 -27 -176 -114 -80 -63 -183 -113 -268 -131 -73 -16 -152 -20 -152
-7 0 16 38 62 92 111 31 29 67 68 78 87 18 28 28 34 55 34 19 0 45 4 59 10 14
5 57 10 95 12 73 2 94 15 70 44 -9 10 -8 15 2 18 8 2 21 7 29 10 21 8 96 -1
120 -14z m-340 -60 c0 -5 -12 -10 -26 -10 -14 0 -23 4 -19 10 3 6 15 10 26 10
10 0 19 -4 19 -10z m-1631 -46 c12 -15 21 -33 21 -40 0 -8 7 -14 15 -14 14 0
14 3 0 30 -17 32 -13 50 10 50 34 0 47 -80 18 -112 -20 -22 -42 -23 -88 -4
-47 20 -64 56 -41 91 21 32 39 32 65 -1z m3363 -53 c34 -35 31 -62 -8 -87 -30
-20 -67 -12 -100 21 -28 28 -31 61 -7 88 25 26 78 16 115 -22z m-3258 -162
c16 -46 2 -62 -46 -56 -30 4 -45 2 -53 -9 -14 -19 -45 -8 -45 16 0 26 17 34
63 31 33 -2 38 1 33 14 -3 9 -3 21 0 26 11 18 38 4 48 -22z m3153 -24 c3 -9
-2 -22 -13 -30 -11 -7 -16 -17 -11 -21 4 -4 18 3 32 16 30 28 50 21 72 -24 16
-34 16 -37 -2 -56 -24 -26 -55 -26 -55 0 0 11 7 20 15 20 19 0 19 14 2 29 -11
8 -19 5 -37 -14 -36 -39 -56 -32 -64 22 -8 46 46 96 61 58z m-3317 -15 c0 -24
-26 -38 -42 -22 -16 16 -2 42 22 42 13 0 20 -7 20 -20z m54 -155 c5 -20 11
-24 29 -21 12 3 40 8 62 11 22 3 48 8 58 11 12 4 17 0 17 -15 0 -24 -28 -41
-67 -41 -15 0 -38 -3 -50 -6 -18 -5 -20 -10 -12 -30 7 -19 5 -26 -7 -31 -9 -3
-20 0 -25 8 -18 28 -49 121 -44 130 11 18 33 9 39 -16z m1746 -204 c-1 -16
-39 -53 -49 -47 -17 11 15 67 34 60 8 -4 15 -9 15 -13z m-225 -41 c3 -5 -1
-36 -10 -69 -8 -32 -15 -61 -15 -65 0 -3 17 -4 38 -3 27 1 37 -2 37 -13 0 -18
-71 -30 -98 -17 -20 9 -19 37 5 135 10 39 29 54 43 32z m-581 -36 c30 -29 16
-56 -37 -69 -15 -4 -27 -14 -27 -22 0 -11 5 -13 18 -8 29 13 57 11 57 -4 0
-21 -55 -41 -82 -30 -12 4 -25 20 -29 34 -18 74 54 146 100 99z m166 -23 l1
-26 23 29 c44 53 71 14 41 -58 -7 -15 -5 -17 12 -12 14 5 23 1 27 -10 8 -20
-9 -34 -39 -34 -37 0 -46 13 -34 49 6 17 9 34 6 37 -8 8 -41 -33 -47 -58 -6
-25 -19 -31 -38 -20 -10 7 -10 16 1 48 11 29 11 43 3 57 -8 13 -8 20 3 26 22
14 41 1 41 -28z m611 23 c10 -12 10 -25 2 -55 -9 -36 -9 -39 7 -34 23 7 35
-11 21 -29 -17 -20 -48 -26 -67 -12 -14 11 -14 17 -3 55 10 35 10 44 -1 51
-11 7 -11 11 -1 24 17 20 25 20 42 0z m185 -12 c10 -21 10 -21 30 -1 13 13 27
17 38 13 18 -7 18 -17 1 -71 -5 -16 -3 -21 11 -20 30 3 29 -31 0 -39 -45 -11
-57 0 -50 48 l5 43 -25 -28 c-14 -15 -26 -37 -26 -48 0 -20 -24 -26 -35 -9 -4
6 -1 26 5 46 9 27 9 38 0 49 -10 12 -10 18 0 30 16 19 32 15 46 -13z m309 8
c23 -26 14 -45 -29 -61 -20 -7 -36 -19 -36 -26 0 -16 2 -16 35 -1 21 10 28 9
35 -2 13 -21 -8 -40 -44 -40 -56 0 -82 36 -61 86 26 63 67 81 100 44z m200 10
c4 -6 10 -8 15 -5 4 3 16 2 25 -1 17 -7 17 -37 0 -78 -7 -15 -5 -17 13 -12 25
8 38 -10 21 -30 -19 -23 -63 -14 -67 14 l-3 23 -20 -26 c-38 -48 -85 -20 -73
44 11 54 70 101 89 71z"/>
<path d="M1955 3500 c-4 -6 -10 -24 -15 -40 -7 -23 -5 -28 6 -23 13 5 44 53
44 68 0 9 -29 5 -35 -5z"/>
<path d="M1717 3463 c-11 -10 -8 -73 3 -73 13 0 30 34 30 59 0 20 -19 28 -33
14z"/>
<path d="M2413 3440 c-16 -24 -17 -50 -3 -50 16 0 52 40 47 53 -6 20 -31 19
-44 -3z"/>
<path d="M1447 3393 c-4 -3 -7 -25 -7 -47 1 -41 1 -41 15 -16 23 40 17 88 -8
63z"/>
<path d="M2966 3199 c-15 -12 -25 -23 -23 -26 10 -9 88 19 84 30 -6 20 -32 19
-61 -4z"/>
<path d="M890 3036 c0 -8 5 -18 10 -21 6 -3 10 3 10 14 0 12 -4 21 -10 21 -5
0 -10 -6 -10 -14z"/>
<path d="M3190 3036 c0 -10 28 -13 41 -5 10 6 7 9 -13 9 -16 0 -28 -2 -28 -4z"/>
<path d="M717 2854 c-14 -14 -7 -51 13 -69 19 -17 20 -17 20 1 -1 28 -24 77
-33 68z"/>
<path d="M3353 2862 c-31 -5 -50 -30 -29 -38 24 -9 66 4 66 21 0 18 -9 22 -37
17z"/>
<path d="M3476 2671 c-56 -12 -36 -43 22 -33 13 3 22 12 22 23 0 11 -3 18 -7
18 -5 -1 -21 -4 -37 -8z"/>
<path d="M490 2460 c0 -19 35 -60 52 -60 4 0 3 12 -3 27 -19 51 -49 71 -49 33z"/>
<path d="M402 2194 c3 -19 55 -61 63 -52 7 7 -44 68 -57 68 -5 0 -8 -7 -6 -16z"/>
<path d="M360 1690 c0 -5 9 -14 20 -20 22 -12 27 -1 8 18 -14 14 -28 16 -28 2z"/>
<path d="M3670 1645 c0 -18 45 -49 60 -40 18 11 11 31 -15 43 -34 16 -45 15
-45 -3z"/>
<path d="M1291 996 c-8 -9 -11 -19 -7 -23 9 -9 29 13 24 27 -2 8 -8 7 -17 -4z"/>
<path d="M2561 996 c-8 -9 -11 -19 -7 -23 9 -9 29 13 24 27 -2 8 -8 7 -17 -4z"/>
<path d="M2778 992 c-19 -21 -28 -48 -21 -56 9 -8 53 34 53 50 0 21 -16 25
-32 6z"/>
</g>
</svg>
